<svg height="478" width="720" xmlns="http://www.w3.org/2000/svg">
<rect height="478" fill="#555" width="720"></rect>
<text fill="#7f7" font-family="Courier New" font-size="12" xml:space="preserve">
<tspan x="10" y="26">1 megabytes installed</tspan>
<tspan x="10" y="42"></tspan>
<tspan x="10" y="58">node_modules</tspan>
<tspan x="10" y="74">└─┬ npmlog@4.0.2 </tspan>
<tspan x="10" y="90">  ├─┬ are-we-there-yet@1.1.2 </tspan>
<tspan x="10" y="106">  │ ├── delegates@1.0.0 </tspan>
<tspan x="10" y="122">  │ └─┬ readable-stream@2.2.9 </tspan>
<tspan x="10" y="138">  │   ├── buffer-shims@1.0.0 </tspan>
<tspan x="10" y="154">  │   ├── core-util-is@1.0.2 </tspan>
<tspan x="10" y="170">  │   ├── inherits@2.0.3 </tspan>
<tspan x="10" y="186">  │   ├── isarray@1.0.0 </tspan>
<tspan x="10" y="202">  │   ├── process-nextick-args@1.0.7 </tspan>
<tspan x="10" y="218">  │   ├── string_decoder@1.0.0 </tspan>
<tspan x="10" y="234">  │   └── util-deprecate@1.0.2 </tspan>
<tspan x="10" y="250">  ├── console-control-strings@1.1.0 </tspan>
<tspan x="10" y="266">  ├─┬ gauge@2.7.3 </tspan>
<tspan x="10" y="282">  │ ├── aproba@1.1.1 </tspan>
<tspan x="10" y="298">  │ ├── has-unicode@2.0.1 </tspan>
<tspan x="10" y="314">  │ ├── object-assign@4.1.1 </tspan>
<tspan x="10" y="330">  │ ├── signal-exit@3.0.2 </tspan>
<tspan x="10" y="346">  │ ├─┬ string-width@1.0.2 </tspan>
<tspan x="10" y="362">  │ │ ├── code-point-at@1.1.0 </tspan>
<tspan x="10" y="378">  │ │ └─┬ is-fullwidth-code-point@1.0.0 </tspan>
<tspan x="10" y="394">  │ │   └── number-is-nan@1.0.1 </tspan>
<tspan x="10" y="410">  │ ├─┬ strip-ansi@3.0.1 </tspan>
<tspan x="10" y="426">  │ │ └── ansi-regex@2.1.1 </tspan>
<tspan x="10" y="442">  │ └── wide-align@1.1.0 </tspan>
<tspan x="10" y="458">  └── set-blocking@2.0.0</tspan>
</text>
</svg>
